<?xml version="1.0" standalone="no"?>
<!DOCTYPE svg PUBLIC "-//W3C//DTD SVG 20010904//EN"
 "http://www.w3.org/TR/2001/REC-SVG-20010904/DTD/svg10.dtd">
<svg version="1.0" xmlns="http://www.w3.org/2000/svg"
 width="198.000000pt" height="198.000000pt" viewBox="0 0 198.000000 198.000000"
 preserveAspectRatio="xMidYMid meet">
<metadata>
Created by potrace 1.14, written by Peter Selinger 2001-2017
</metadata>
<g transform="translate(0.000000,198.000000) scale(0.100000,-0.100000)"
fill="#000000" stroke="none">
<path d="M748 1780 c-171 -31 -306 -99 -426 -214 -121 -115 -195 -242 -232
-399 -30 -125 -25 -138 24 -61 137 216 346 378 546 420 295 63 643 -113 715
-360 42 -146 -38 -306 -178 -352 -105 -35 -238 3 -312 88 -17 21 -35 38 -38
38 -13 0 -7 -48 13 -112 80 -259 414 -279 643 -39 110 115 155 271 124 426
-53 259 -272 479 -547 550 -75 19 -263 28 -332 15z"/>
<path d="M1420 1747 c-19 -12 -43 -37 -53 -55 l-20 -34 39 -31 c48 -39 89 -80
133 -132 18 -22 31 -33 28 -25 -3 11 2 16 14 17 11 1 17 -2 14 -7 -3 -4 6 -7
19 -6 13 0 22 4 19 9 -2 4 9 6 26 5 17 -1 31 -6 31 -11 0 -5 7 -4 16 3 12 11
15 11 12 -1 -2 -9 4 -13 16 -11 15 3 16 1 5 -12 -12 -13 -15 -13 -26 2 -7 8
-13 11 -13 6 0 -18 22 -33 39 -26 13 5 14 3 3 -10 -10 -13 -10 -17 4 -22 13
-5 14 -9 4 -21 -7 -9 -15 -13 -19 -10 -3 3 1 11 9 16 13 9 13 10 0 6 -8 -2
-15 -12 -15 -23 0 -13 -6 -18 -19 -16 -15 3 -16 1 -5 -11 9 -9 16 -11 20 -5 3
5 9 9 13 9 20 -3 26 0 21 9 -3 6 0 10 8 10 8 0 20 7 27 16 7 8 23 14 34 13 65
-5 106 28 106 86 0 44 -45 95 -84 95 -16 0 -27 7 -31 20 -11 34 -63 70 -103
70 -31 0 -40 5 -54 30 -39 69 -150 93 -218 47z m185 -247 c3 -5 1 -10 -4 -10
-6 0 -11 5 -11 10 0 6 2 10 4 10 3 0 8 -4 11 -10z"/>
<path d="M597 1446 c-183 -62 -353 -245 -402 -432 -19 -74 -19 -210 0 -292 17
-71 76 -205 95 -217 10 -6 12 -4 7 8 -33 87 -41 263 -16 345 14 43 14 42 15
-65 0 -59 6 -128 13 -153 55 -191 208 -357 401 -436 165 -67 392 -71 574 -10
183 61 348 156 479 276 61 56 157 177 157 198 0 8 -21 -5 -47 -28 -120 -105
-309 -204 -470 -247 -132 -34 -309 -36 -427 -4 -175 47 -330 157 -391 277 -28
54 -30 67 -30 164 0 97 2 110 31 170 56 118 141 180 255 188 164 11 292 -99
245 -212 -30 -72 -126 -78 -126 -8 0 28 -17 20 -31 -15 -12 -32 8 -65 54 -93
44 -28 85 -25 138 9 91 57 138 146 126 235 -23 168 -152 304 -333 350 -94 24
-234 21 -317 -8z"/>
<path d="M1655 1460 c-3 -5 -1 -10 4 -10 6 0 11 5 11 10 0 6 -2 10 -4 10 -3 0
-8 -4 -11 -10z"/>
<path d="M1765 643 c-126 -75 -305 -140 -464 -167 -106 -18 -295 -21 -385 -6
-71 11 -83 6 -32 -15 111 -47 317 -63 451 -36 177 36 342 116 475 230 47 41
28 38 -45 -6z"/>
</g>
</svg>
